<svg height="24" viewBox="0 0 64 64" width="24" xmlns="http://www.w3.org/2000/svg"><g id="Twotone"><g id="Color_copy_2" data-name="Color copy 2"><path d="m61 37v8a4 4 0 0 1 -4 4h-49a5 5 0 0 1 -5-5v-31a4 4 0 0 1 4-4h15v8a19.994 19.994 0 0 0 20 20z" fill="#cff09e"/><path d="m55 59v2h-46v-2a2.006 2.006 0 0 1 2-2h1.18a2.968 2.968 0 0 0 2.82 2z" fill="#cff09e"/><path d="m42 49h-20a10.823 10.823 0 0 1 -6.347 6.939l-2.653 1.061h38l-2.653-1.061a10.823 10.823 0 0 1 -6.347-6.939z" fill="#a8dba8"/><path d="m28 7h6a0 0 0 0 1 0 0v3a3 3 0 0 1 -3 3 3 3 0 0 1 -3-3v-3a0 0 0 0 1 0 0z" fill="#cff09e"/><path d="m32 3h2a0 0 0 0 1 0 0v4a0 0 0 0 1 0 0h-6a0 0 0 0 1 0 0 4 4 0 0 1 4-4z" fill="#79bd9a"/><path d="m46.89 17.62-5.11 1.02a4.7 4.7 0 0 1 -3.34-.57l-2.32-1.4a4.694 4.694 0 0 0 -2.42-.67 4.668 4.668 0 0 1 -3.843-2.016c.049 0 .094.016.143.016a2.978 2.978 0 0 0 2.221-1h-5.221l-6 1-2.37 6.33a1.718 1.718 0 0 0 3.08 1.49l2.29-3.82h3v5h8v-4.4l4 2.4 6.28-.78a1.967 1.967 0 0 0 1.61-2.6z" fill="#cff09e"/><path d="m34.942 25.464a2.631 2.631 0 0 0 1.384 1.384l.844.362a3.813 3.813 0 0 1 2.22 2.74 3.793 3.793 0 0 0 2.24 2.75l.37 3.3-4-1-1-6-4-2-3 6-10 1 .83-4 5.17-1 1-6h8l-.2.8a2.63 2.63 0 0 0 .138 1.665z" fill="#cff09e"/><g fill="#79bd9a"><path d="m38 35h3a4 4 0 0 1 4 4 0 0 0 0 1 0 0h-7a0 0 0 0 1 0 0v-4a0 0 0 0 1 0 0z"/><path d="m15.5 31.5h3a4 4 0 0 1 4 4 0 0 0 0 1 0 0h-7a0 0 0 0 1 0 0v-4a0 0 0 0 1 0 0z" transform="matrix(0 1 -1 0 52.5 14.5)"/><circle cx="22" cy="43" r="2"/><path d="m53 34h4v4h-4z"/></g><path d="m53 30h4v4h-4z" fill="#a8dba8"/><path d="m53 26h4v4h-4z" fill="#cff09e"/><path d="m53 22h4v4h-4z" fill="#79bd9a"/></g><g id="Stroke_Close_copy" fill="#3b8686" data-name="Stroke Close copy"><path d="m57 8h-22v-5a1 1 0 0 0 -1-1h-2a5.006 5.006 0 0 0 -5 5v1h-20a5.006 5.006 0 0 0 -5 5v31a6.006 6.006 0 0 0 6 6h12.545a9.756 9.756 0 0 1 -5.263 5.01l-2.474.99h-1.808a3 3 0 0 0 -3 3v2a1 1 0 0 0 1 1h46a1 1 0 0 0 1-1v-2a3 3 0 0 0 -3-3h-1.808l-2.474-.99a9.756 9.756 0 0 1 -5.263-5.01h13.545a5.006 5.006 0 0 0 5-5v-32a5.006 5.006 0 0 0 -5-5zm-13.171 30h-4.829v-2h2a3.006 3.006 0 0 1 2.829 2zm-4.982-4-.861-5.165a1 1 0 0 0 -.539-.73l-4-2a1 1 0 0 0 -1.342.448l-2.752 5.507-7.353.74v-2l4.189-.81a1 1 0 0 0 .8-.817l.858-5.173h6.853l5.361 3.574.711 6.426zm-18.847-3v2a3.006 3.006 0 0 1 -2 2.829v-4.829zm15.515-13.257a1 1 0 0 0 -1.515.857v3.4h-6v-4a1 1 0 0 0 -1-1h-3a1 1 0 0 0 -.857.485l-2.291 3.815a.72.72 0 0 1 -.843.311.719.719 0 0 1 -.447-.934l2.171-5.789 5.35-.888h7.566l4.726 3.781a1 1 0 0 0 .767.209l4.757-.68a.959.959 0 0 1 .768.227.949.949 0 0 1 .333.729.966.966 0 0 1 -.845.957l-5.936.742zm-6.515-7.743v-2h4v2a2 2 0 0 1 -4 0zm3-6h1v2h-3.829a3.006 3.006 0 0 1 2.829-2zm22 55v1h-44v-1a1 1 0 0 1 1-1h42a1 1 0 0 1 1 1zm-7.768-3h-28.464a11.743 11.743 0 0 0 4.952-6h18.56a11.743 11.743 0 0 0 4.952 6zm13.768-11a3 3 0 0 1 -3 3h-49a4 4 0 0 1 -4-4v-31a3 3 0 0 1 3-3h20a3.959 3.959 0 0 0 .556 2h-.556a.9.9 0 0 0 -.164.014l-6 1a1 1 0 0 0 -.773.635l-2.374 6.33a2.721 2.721 0 0 0 1.687 3.534 2.734 2.734 0 0 0 3.19-1.18l2-3.333h1.434v3.917l-.872 5.233-4.4.85h-3.728a1 1 0 0 0 -1 1v7a1 1 0 0 0 1 1 5 5 0 0 0 4.639-3.159l8.461-.846a1 1 0 0 0 .795-.548l2.552-5.105 2.653 1.325.9 5.416v3.917a1 1 0 0 0 1 1h7a1 1 0 0 0 1-1 5 5 0 0 0 -3.176-4.644l-.83-7.466a1 1 0 0 0 -.439-.722l-5.555-3.703v-2.1l2.485 1.491a.992.992 0 0 0 .639.135l6.279-.784a2.965 2.965 0 1 0 -.787-5.877l-4.329.618-4.662-3.73a1 1 0 0 0 -.625-.218h-.556a3.959 3.959 0 0 0 .556-2h22a3 3 0 0 1 3 3z"/><path d="m53 42h-28.184a2.982 2.982 0 0 0 -5.632 0h-6.184a1 1 0 0 0 0 2h6.184a2.982 2.982 0 0 0 5.632 0h28.184a1 1 0 0 0 0-2zm-31 2a1 1 0 1 1 1-1 1 1 0 0 1 -1 1z"/><path d="m57 21h-4a1 1 0 0 0 -1 1v16a1 1 0 0 0 1 1h4a1 1 0 0 0 1-1v-16a1 1 0 0 0 -1-1zm-1 8h-2v-2h2zm-2 2h2v2h-2zm0-8h2v2h-2zm2 14h-2v-2h2z"/><path d="m7 21h4a1 1 0 0 0 0-2h-4a1 1 0 0 0 0 2z"/><path d="m7 25h4a1 1 0 0 0 0-2h-4a1 1 0 0 0 0 2z"/><path d="m11 27h-4a1 1 0 0 0 0 2h4a1 1 0 0 0 0-2z"/><path d="m10 31h-3a1 1 0 0 0 0 2h3a1 1 0 0 0 0-2z"/><path d="m9 35h-2a1 1 0 0 0 0 2h2a1 1 0 0 0 0-2z"/></g></g></svg>