<svg id="Layer_1" enable-background="new 0 0 512 512" height="24" viewBox="0 0 512 512" width="24" xmlns="http://www.w3.org/2000/svg"><g><g><path d="m288.373 263.127-71.173-106.895c-2.724-4.147-4.175-8.999-4.175-13.961v-64.298c0-5.523-4.477-10-10-10h-96.731c-5.523 0-10 4.477-10 10v64.299c0 4.961-1.451 9.814-4.175 13.961l-68.396 104.117c-2.726 4.15-4.179 9.007-4.179 13.972v204.473c0 6.984 2.872 13.662 7.942 18.465l.002.002c4.756 4.506 11.058 7.017 17.609 7.017h243.277v-241.152z" fill="#ffe77a"/><path d="m217.201 156.232c-2.724-4.146-4.175-9-4.175-13.961v-64.298c0-5.523-4.477-10-10-10h-30c5.523 0 10 4.477 10 10v64.299c0 4.961 1.451 9.814 4.175 13.961l71.173 106.895v241.152h30v-241.154z" fill="#ffe25c"/><path d="m431.13 215.239v-43.955c0-5.523-4.477-10-10-10h-95.669c-5.523 0-10 4.477-10 10v43.96c0 3.964-1.16 7.842-3.336 11.155l-54.651 83.194c-2.178 3.316-3.339 7.197-3.339 11.164v163.368c0 5.589 2.298 10.932 6.355 14.775 3.795 3.596 8.824 5.6 14.052 5.6h197.507c5.228 0 10.257-2.004 14.052-5.6 4.057-3.844 6.355-9.187 6.355-14.775v-163.368c0-3.967-1.161-7.848-3.339-11.164l-54.648-83.19c-2.178-3.316-3.339-7.197-3.339-11.164z" fill="#ddacf7"/><path d="m489.117 309.593-54.648-83.19c-2.178-3.316-3.339-7.197-3.339-11.164v-43.955c0-5.523-4.477-10-10-10h-30c5.523 0 10 4.477 10 10v43.955c0 3.967 1.161 7.848 3.339 11.164l54.648 83.19c2.178 3.316 3.339 7.197 3.339 11.164v163.368c0 5.589-2.298 10.931-6.355 14.775-3.795 3.596-8.824 5.6-14.052 5.6h30c5.228 0 10.257-2.004 14.052-5.6 4.057-3.844 6.355-9.187 6.355-14.775v-163.368c0-3.968-1.161-7.849-3.339-11.164z" fill="#d69cf5"/><path d="m216.158 40.378h-122.996c-9.079 0-16.439-7.36-16.439-16.439 0-9.079 7.36-16.439 16.439-16.439h122.996c9.079 0 16.439 7.36 16.439 16.439 0 9.079-7.36 16.439-16.439 16.439z" fill="#ffe77a"/><path d="m216.158 7.5h-30c9.079 0 16.439 7.36 16.439 16.439 0 9.079-7.36 16.439-16.439 16.439h30c9.079 0 16.439-7.36 16.439-16.439 0-9.079-7.36-16.439-16.439-16.439z" fill="#ffe25c"/><path d="m431.3 133.828h-116.009c-9.079 0-16.439-7.36-16.439-16.439 0-9.079 7.36-16.439 16.439-16.439h116.009c9.079 0 16.439 7.36 16.439 16.439 0 9.079-7.36 16.439-16.439 16.439z" fill="#ddacf7"/><path d="m431.3 100.95h-30c9.079 0 16.439 7.36 16.439 16.439 0 9.079-7.36 16.439-16.439 16.439h30c9.079 0 16.439-7.36 16.439-16.439 0-9.079-7.36-16.439-16.439-16.439z" fill="#d69cf5"/><path d="m163.792 122.048h-18.264c-12.734 0-23.056-10.323-23.056-23.056v-58.614h64.377v58.614c-.001 12.733-10.323 23.056-23.057 23.056z" fill="#8d70ea"/><path d="m163.792 122.048h-18.264c-12.734 0-23.056-10.323-23.056-23.056v-30.992h64.377v30.992c-.001 12.733-10.323 23.056-23.057 23.056z" fill="#8062e3"/><path d="m387.454 199.085h-28.316c-10.175 0-18.423-8.248-18.423-18.423v-46.834h65.162v46.834c0 10.175-8.248 18.423-18.423 18.423z" fill="#8d70ea"/><path d="m387.454 199.085h-28.316c-10.175 0-18.423-8.248-18.423-18.423v-19.662h65.162v19.662c0 10.175-8.248 18.423-18.423 18.423z" fill="#8062e3"/></g><g fill="#060606"><path d="m100.776 451.713h-42.152c-9.697 0-9.697 15 0 15h42.152c9.698 0 9.698-15 0-15z"/><path d="m100.776 411.775h-42.152c-9.697 0-9.697 15 0 15h42.152c9.698 0 9.698-15 0-15z"/><path d="m100.776 371.838h-42.152c-9.697 0-9.697 15 0 15h42.152c9.698 0 9.698-15 0-15z"/><path d="m100.776 331.9h-42.152c-9.697 0-9.697 15 0 15h42.152c9.698 0 9.698-15 0-15z"/><path d="m100.776 291.962h-42.152c-9.697 0-9.697 15 0 15h42.152c9.698 0 9.698-15 0-15z"/><path d="m335.339 451.713h-42.152c-4.142 0-7.5 3.358-7.5 7.5s3.358 7.5 7.5 7.5h42.152c4.142 0 7.5-3.358 7.5-7.5s-3.358-7.5-7.5-7.5z"/><path d="m335.339 411.775h-42.152c-4.142 0-7.5 3.358-7.5 7.5s3.358 7.5 7.5 7.5h42.152c4.142 0 7.5-3.358 7.5-7.5s-3.358-7.5-7.5-7.5z"/><path d="m335.339 371.838h-42.152c-4.142 0-7.5 3.358-7.5 7.5s3.358 7.5 7.5 7.5h42.152c4.142 0 7.5-3.358 7.5-7.5s-3.358-7.5-7.5-7.5z"/><path d="m335.339 331.9h-42.152c-4.142 0-7.5 3.358-7.5 7.5s3.358 7.5 7.5 7.5h42.152c4.142 0 7.5-3.358 7.5-7.5s-3.358-7.5-7.5-7.5z"/><path d="m492.456 430.5c4.142 0 7.5-3.358 7.5-7.5v-102.249c0-5.443-1.581-10.726-4.57-15.276l-54.648-83.19c-1.379-2.099-2.107-4.534-2.107-7.042v-53.96c0-4.142-3.358-7.5-7.5-7.5h-17.753v-12.456h17.922c30.85 0 30.801-47.878 0-47.878h-116.009c-30.851 0-30.801 47.878 0 47.878h17.923v12.456h-17.753c-4.142 0-7.5 3.358-7.5 7.5v53.96c0 2.508-.729 4.943-2.107 7.042l-18.144 27.621-64.237-97.787c-1.928-2.935-2.947-6.34-2.947-9.848v-74.298c0-4.142-3.358-7.5-7.5-7.5h-18.677v-12.595h21.81c30.851 0 30.801-47.878 0-47.878h-66.159c-9.697 0-9.697 15 0 15h66.158c11.694 0 11.182 17.878 0 17.878h-122.996c-11.694 0-11.182-17.878 0-17.878h19.171c9.697 0 9.697-15 0-15h-19.171c-30.851 0-30.801 47.878 0 47.878h21.809v12.595h-18.677c-4.142 0-7.5 3.358-7.5 7.5v74.299c0 3.508-1.019 6.913-2.947 9.848l-68.393 104.112c-3.539 5.388-5.41 11.641-5.41 18.084v204.479c0 18.011 15.097 32.984 33.053 32.984l426.942.221c15.039 0 27.917-12.742 27.917-27.863v-25.804c0-9.697-15-9.697-15 0v25.804c0 7.047-5.912 12.863-12.917 12.863h-197.486c-6.702 0-12.917-6.147-12.917-12.863v-163.386c0-2.508.729-4.942 2.107-7.041l54.648-83.19c2.99-4.552 4.57-9.834 4.57-15.277v-46.46h10.253v11.878c0 14.294 11.629 25.923 25.923 25.923h28.317c14.293 0 25.922-11.629 25.922-25.923v-11.878h10.253v46.46c0 5.443 1.581 10.725 4.57 15.277l54.649 83.19c1.378 2.098 2.107 4.533 2.107 7.041v102.249c.001 4.142 3.359 7.5 7.501 7.5zm-362.485-382.622h49.377v12.595h-49.377zm0 27.595h49.377v23.519c0 8.578-6.979 15.557-15.556 15.557h-18.264c-8.578 0-15.557-6.979-15.557-15.557zm121.235 230.001c-2.99 4.551-4.571 9.834-4.571 15.277v163.386c0 4.42 1.077 8.755 3.059 12.643h-204.597c-9.794 0-18.053-8.135-18.053-17.984v-204.48c0-3.508 1.019-6.913 2.947-9.848l68.393-104.112c3.54-5.388 5.41-11.641 5.41-18.084v-66.799h11.177v23.519c0 16.849 13.708 30.557 30.557 30.557h18.264c16.849 0 30.556-13.708 30.556-30.557v-23.519h11.177v66.799c0 6.443 1.871 12.696 5.41 18.083l67.801 103.211zm64.085-197.024h116.009c11.694 0 11.182 17.878 0 17.878h-116.009c-11.694 0-11.183-17.878 0-17.878zm32.923 32.878h50.162v12.456h-50.162zm50.162 39.334c0 6.023-4.9 10.923-10.922 10.923h-28.317c-6.023 0-10.923-4.9-10.923-10.923v-11.878h50.162z"/></g></g></svg>