<svg id="Capa_1" enable-background="new 0 0 512 512" height="24" viewBox="0 0 512 512" width="24" xmlns="http://www.w3.org/2000/svg" xmlns:xlink="http://www.w3.org/1999/xlink"><linearGradient id="SVGID_1_" gradientUnits="userSpaceOnUse" x1="256" x2="256" y1="512" y2="0"><stop offset="0" stop-color="#fd5900"/><stop offset="1" stop-color="#ffde00"/></linearGradient><g><g><g><path d="m256 271c8.284 0 15-6.716 15-15s-6.716-15-15-15-15 6.716-15 15 6.716 15 15 15zm-90 0h16.509c1.949 9.561 5.731 18.46 10.948 26.329l-11.704 11.703c-5.858 5.858-5.858 15.355 0 21.213 5.857 5.857 15.354 5.859 21.213 0l11.704-11.704c7.869 5.217 16.768 9 26.329 10.948v16.511c0 8.284 6.716 15 15 15s15-6.716 15-15v-16.509c9.561-1.949 18.46-5.731 26.329-10.948l11.704 11.704c5.857 5.858 15.355 5.858 21.213 0s5.858-15.355 0-21.213l-11.704-11.703c5.217-7.869 9-16.768 10.948-26.329h16.511c8.284 0 15-6.716 15-15s-6.716-15-15-15h-16.509c-1.949-9.561-5.731-18.46-10.948-26.329l11.704-11.703c5.858-5.858 5.858-15.355 0-21.213-5.857-5.858-15.354-5.858-21.213 0l-11.704 11.704c-7.869-5.217-16.768-9-26.329-10.948v-16.513c0-8.284-6.716-15-15-15s-15 6.716-15 15v16.509c-9.561 1.949-18.46 5.731-26.329 10.948l-11.704-11.704c-5.857-5.858-15.355-5.858-21.213 0s-5.858 15.355 0 21.213l11.704 11.703c-5.217 7.869-9 16.768-10.948 26.329h-16.511c-8.284 0-15 6.716-15 15s6.716 15.002 15 15.002zm90-60c24.813 0 45 20.187 45 45s-20.187 45-45 45-45-20.187-45-45 20.187-45 45-45zm241-30c8.284 0 15-6.716 15-15v-30c0-8.284-6.716-15-15-15s-15 6.716-15 15v15h-61v-45c0-8.284-6.716-15-15-15h-45v-61h15c8.284 0 15-6.716 15-15s-6.716-15-15-15h-30c-8.284 0-15 6.716-15 15v76h-30v-76c0-8.284-6.716-15-15-15s-15 6.716-15 15v76h-30v-76c0-8.284-6.716-15-15-15s-15 6.716-15 15v76h-30v-76c0-8.284-6.716-15-15-15h-30c-8.284 0-15 6.716-15 15s6.716 15 15 15h15v61h-45c-8.284 0-15 6.716-15 15v45h-61v-15c0-8.284-6.716-15-15-15s-15 6.716-15 15v30c0 8.284 6.716 15 15 15h76v30h-76c-8.284 0-15 6.716-15 15s6.716 15 15 15h76v30h-76c-8.284 0-15 6.716-15 15s6.716 15 15 15h76v30h-76c-8.284 0-15 6.716-15 15v30c0 8.284 6.716 15 15 15s15-6.716 15-15v-15h61v45c0 8.284 6.716 15 15 15h45v61h-15c-8.284 0-15 6.716-15 15s6.716 15 15 15h30c8.284 0 15-6.716 15-15v-76h30v76c0 8.284 6.716 15 15 15s15-6.716 15-15v-76h30v76c0 8.284 6.716 15 15 15s15-6.716 15-15v-76h30v76c0 8.284 6.716 15 15 15h30c8.284 0 15-6.716 15-15s-6.716-15-15-15h-15v-61h45c8.284 0 15-6.716 15-15v-45h61v15c0 8.284 6.716 15 15 15s15-6.716 15-15v-30c0-8.284-6.716-15-15-15h-76v-30h76c8.284 0 15-6.716 15-15s-6.716-15-15-15h-76v-30h76c8.284 0 15-6.716 15-15s-6.716-15-15-15h-76v-30zm-106 210h-270v-270h270z" fill="url(#SVGID_1_)"/></g></g></g></svg>