<svg id="Capa_1" enable-background="new 0 0 497 497" height="24" viewBox="0 0 497 497" width="24" xmlns="http://www.w3.org/2000/svg"><g><g><path d="m175.457 497h-105.015c-5.671 0-10.267-4.597-10.267-10.267v-476.466c-.001-5.67 4.596-10.267 10.267-10.267h105.016c5.67 0 10.267 4.597 10.267 10.267v476.465c0 5.671-4.597 10.268-10.268 10.268z" fill="#cdafeb"/></g><g><path d="m175.457 0h-30c5.67 0 10.267 4.597 10.267 10.267v476.465c0 5.671-4.597 10.267-10.267 10.267h30c5.67 0 10.267-4.597 10.267-10.267l10-249.361v-17.8l-10-209.304c.001-5.67-4.596-10.267-10.267-10.267z" fill="#bd96e4"/></g><g><circle cx="122.95" cy="402.309" fill="#f1f1f2" r="31.185"/></g><g><path d="m60.174 53.085h125.55v67.837h-125.55z" fill="#ad7fdd"/></g><g><path d="m122.95 371.124c-5.438 0-10.549 1.395-15 3.842 9.646 5.303 16.185 15.559 16.185 27.344s-6.539 22.041-16.185 27.344c4.451 2.447 9.562 3.841 15 3.841 17.223 0 31.185-13.962 31.185-31.185 0-17.224-13.962-31.186-31.185-31.186z" fill="#e3e5ec"/></g><g><path d="m155.725 53.085v67.837h30l10-37.837-10-30z" fill="#9d66d6"/></g><g><g><path d="m144.135 229.809h-42.371c-4.142 0-7.5-3.358-7.5-7.5s3.358-7.5 7.5-7.5h42.371c4.142 0 7.5 3.358 7.5 7.5s-3.358 7.5-7.5 7.5z" fill="#ad7fdd"/></g><g><path d="m144.135 262.841h-42.371c-4.142 0-7.5-3.358-7.5-7.5s3.358-7.5 7.5-7.5h42.371c4.142 0 7.5 3.358 7.5 7.5s-3.358 7.5-7.5 7.5z" fill="#ad7fdd"/></g><g><path d="m144.135 295.873h-42.371c-4.142 0-7.5-3.358-7.5-7.5s3.358-7.5 7.5-7.5h42.371c4.142 0 7.5 3.358 7.5 7.5s-3.358 7.5-7.5 7.5z" fill="#ad7fdd"/></g></g><g><path d="m301.008 497h-105.016c-5.671 0-10.267-4.597-10.267-10.267v-476.466c0-5.67 4.597-10.267 10.267-10.267h105.016c5.671 0 10.267 4.597 10.267 10.267v476.465c0 5.671-4.597 10.268-10.267 10.268z" fill="#b2e5fb"/></g><g><path d="m301.008 0h-30c5.671 0 10.267 4.597 10.267 10.267v476.465c0 5.671-4.597 10.267-10.267 10.267h30c5.671 0 10.267-4.597 10.267-10.267l10-244.389-10-232.076c0-5.67-4.597-10.267-10.267-10.267z" fill="#91dafa"/></g><g><circle cx="248.5" cy="402.309" fill="#f1f1f2" r="31.185"/></g><g><path d="m185.725 53.085h125.55v67.837h-125.55z" fill="#91dafa"/></g><g><path d="m248.5 371.124c-5.438 0-10.549 1.395-15 3.842 9.646 5.303 16.185 15.559 16.185 27.344s-6.539 22.041-16.185 27.344c4.451 2.447 9.562 3.841 15 3.841 17.223 0 31.185-13.962 31.185-31.185 0-17.224-13.962-31.186-31.185-31.186z" fill="#e3e5ec"/></g><g><path d="m281.275 53.085v67.837h30l10-33.919-10-33.918z" fill="#75cff9"/></g><g><g><path d="m269.685 229.809h-42.371c-4.142 0-7.5-3.358-7.5-7.5s3.358-7.5 7.5-7.5h42.371c4.142 0 7.5 3.358 7.5 7.5s-3.358 7.5-7.5 7.5z" fill="#91dafa"/></g><g><path d="m269.685 262.841h-42.371c-4.142 0-7.5-3.358-7.5-7.5s3.358-7.5 7.5-7.5h42.371c4.142 0 7.5 3.358 7.5 7.5s-3.358 7.5-7.5 7.5z" fill="#91dafa"/></g><g><path d="m269.685 295.873h-42.371c-4.142 0-7.5-3.358-7.5-7.5s3.358-7.5 7.5-7.5h42.371c4.142 0 7.5 3.358 7.5 7.5s-3.358 7.5-7.5 7.5z" fill="#91dafa"/></g></g><g><path d="m426.558 497h-105.015c-5.671 0-10.267-4.597-10.267-10.267v-476.466c0-5.67 4.597-10.267 10.267-10.267h105.016c5.671 0 10.267 4.597 10.267 10.267v476.465c-.001 5.671-4.597 10.268-10.268 10.268z" fill="#fff3c9"/></g><g><path d="m426.558 0h-30c5.671 0 10.267 4.597 10.267 10.267v476.465c0 5.671-4.597 10.267-10.267 10.267h30c5.671 0 10.267-4.597 10.267-10.267v-476.465c0-5.67-4.596-10.267-10.267-10.267z" fill="#feeeb9"/></g><g><circle cx="374.05" cy="402.309" fill="#f1f1f2" r="31.185"/></g><g><path d="m311.275 53.085h125.55v67.837h-125.55z" fill="#ffe37b"/></g><g><path d="m374.05 371.124c-5.438 0-10.549 1.395-15 3.842 9.646 5.303 16.185 15.559 16.185 27.344s-6.539 22.041-16.185 27.344c4.451 2.447 9.562 3.841 15 3.841 17.223 0 31.185-13.962 31.185-31.185.001-17.224-13.961-31.186-31.185-31.186z" fill="#e3e5ec"/></g><g><path d="m406.825 53.085h30v67.837h-30z" fill="#f1d368"/></g><g><g><path d="m395.236 229.809h-42.371c-4.142 0-7.5-3.358-7.5-7.5s3.358-7.5 7.5-7.5h42.371c4.142 0 7.5 3.358 7.5 7.5s-3.358 7.5-7.5 7.5z" fill="#ffe37b"/></g><g><path d="m395.236 262.841h-42.371c-4.142 0-7.5-3.358-7.5-7.5s3.358-7.5 7.5-7.5h42.371c4.142 0 7.5 3.358 7.5 7.5s-3.358 7.5-7.5 7.5z" fill="#ffe37b"/></g><g><path d="m395.236 295.873h-42.371c-4.142 0-7.5-3.358-7.5-7.5s3.358-7.5 7.5-7.5h42.371c4.142 0 7.5 3.358 7.5 7.5s-3.358 7.5-7.5 7.5z" fill="#ffe37b"/></g></g></g></svg>