<svg height="24" viewBox="0 0 512 512.00019" width="24" xmlns="http://www.w3.org/2000/svg"><path d="m376.949219 367.921875-95.398438 95.699219c-63.300781 63.300781-167.402343 65.699218-233.402343 0-64.199219-64.5-64.199219-169.199219 0-233.402344l95.402343-95.398438 60-.300781 3.597657 63.902344-95.398438 95.398437c-29.097656 29.101563-29.097656 76.800782 0 106.199219 30.601562 30.300781 77.699219 28.203125 106.199219 0l95.402343-95.398437 63.300782 3zm0 0" fill="#fa5e97"/><path d="m376.949219 367.921875-95.398438 95.699219c-63.300781 63.300781-167.402343 65.699218-233.402343 0l63.601562-63.601563c30.601562 30.300781 77.699219 28.203125 106.199219 0l95.402343-95.398437 63.300782 3zm0 0" fill="#d94f88"/><path d="m290.089844 110.347656c-1.917969-13.359375 2.636718-27.058594 12.203125-36.605468 9.519531-9.566407 23.246093-14.003907 36.605469-12.203126 4.058593.660157 8.21875-.804687 11.117187-3.707031 2.902344-2.914062 4.292969-7.074219 3.707031-11.132812l29.707032-4.277344c1.917968 13.375-2.652344 27.070313-12.203126 36.621094-9.5625 9.535156-23.378906 13.976562-36.574218 12.203125-4.117188-.601563-8.25.789062-11.132813 3.691406-2.917969 2.929688-4.308593 7.074219-3.722656 11.132812zm0 0" fill="#9bfcff"/><path d="m247.667969 67.925781c-1.917969-13.375 2.652343-27.070312 12.203125-36.621093 9.535156-9.550782 23.230468-14.152344 36.578125-12.203126 4.027343.570313 8.230469-.789062 11.132812-3.691406 2.914063-2.929687 4.304688-7.074218 3.71875-11.132812l29.707031-4.277344c1.921876 13.359375-2.636718 27.054688-12.199218 36.605469-9.539063 9.566406-23.234375 14.019531-36.609375 12.203125-3.96875-.511719-8.1875.804687-11.117188 3.707031-2.898437 2.914063-4.289062 7.074219-3.703125 11.132813zm0 0" fill="#9bfcff"/><path d="m407.71875 208.242188c-1.992188 0-4-.144532-5.992188-.425782l4.21875-29.707031c4.085938.570313 8.21875-.804687 11.148438-3.71875 2.898438-2.902344 4.292969-7.078125 3.707031-11.148437-1.921875-13.359376 2.648438-27.042969 12.214844-36.59375 9.535156-9.535157 23.277344-14.132813 36.5625-12.1875l-4.21875 29.707031c-4.144531-.554688-8.246094.820312-11.144531 3.707031-2.917969 2.914062-4.292969 7.0625-3.707032 11.117188 1.890626 13.402343-2.667968 27.070312-12.203124 36.605468-8.117188 8.117188-19.21875 12.644532-30.585938 12.644532zm0 0" fill="#76e2f8"/><path d="m450.152344 250.664062c-2.003906 0-4.011719-.144531-6.003906-.425781l4.21875-29.707031c4.203124.660156 8.246093-.804688 11.148437-3.707031 2.898437-2.914063 4.289063-7.074219 3.703125-11.117188-1.886719-13.386719 2.667969-27.054687 12.1875-36.605469 9.539062-9.566406 23.308594-14.164062 36.59375-12.214843l-4.21875 29.707031c-4.160156-.574219-8.246094.832031-11.148438 3.703125-2.898437 2.902344-4.289062 7.089844-3.703124 11.164063 1.917968 13.3125-2.636719 26.996093-12.191407 36.5625-8.113281 8.128906-19.230469 12.640624-30.585937 12.640624zm0 0" fill="#76e2f8"/><path d="m440.402344 304.320312-63.300782-63.300781-63.695312 63.574219 63.417969 63.425781zm0 0" fill="#bbdcff"/><path d="m270.902344 134.820312-63.601563-63.601562-63.691406 63.574219 63.597656 63.601562zm0 0" fill="#e0f4ff"/></svg>