<svg id="Layer_1" enable-background="new 0 0 512 512" height="24" viewBox="0 0 512 512" width="24" xmlns="http://www.w3.org/2000/svg"><g><path d="m285.181 293.436h-136.221c-27.413 0-49.635-22.222-49.635-49.635 0-27.413 22.222-49.635 49.635-49.635h136.221c27.413 0 49.635 22.222 49.635 49.635-.001 27.412-22.223 49.635-49.635 49.635z" fill="#1eb073"/><path d="m295 165.5h-78c-43.63 0-79-35.369-79-79 0-43.63 35.369-79 79-79h78c43.63 0 79 35.369 79 79 0 43.631-35.369 79-79 79z" fill="#6de470"/><path d="m295 7.5h-30c43.631 0 79 35.369 79 79 0 43.63-35.369 79-79 79h30c43.631 0 79-35.37 79-79 0-43.631-35.369-79-79-79z" fill="#4dcc68"/><path d="m235 165.5h42v309h-42z" fill="#d67b42"/><path d="m380.905 230.338h-97.185c-31.628 0-57.268-25.64-57.268-57.268 0-31.628 25.64-57.268 57.268-57.268h97.185c31.628 0 57.268 25.64 57.268 57.268 0 31.628-25.64 57.268-57.268 57.268z" fill="#4dcc68"/><path d="m380.905 115.802h-30c31.628 0 57.268 25.64 57.268 57.268 0 31.628-25.64 57.268-57.268 57.268h30c31.628 0 57.268-25.64 57.268-57.268 0-31.628-25.64-57.268-57.268-57.268z" fill="#1eb073"/><path d="m477.266 474.5h-69.157v-44.228c0-19.097 15.481-34.578 34.578-34.578 19.097 0 34.578 15.481 34.578 34.578v44.228z" fill="#6de470"/><path d="m442.687 395.693c-5.375 0-10.463 1.226-15 3.414 11.585 5.586 19.578 17.442 19.578 31.164v44.229h30v-44.228c.001-19.098-15.481-34.579-34.578-34.579z" fill="#4dcc68"/><path d="m303.07 425.5v49h-148.1v-94.09h7.225c16.409 0 31.433 9.197 38.896 23.809 6.671 13.061 20.099 21.281 34.765 21.281z" fill="#329c9d"/><path d="m154.97 474.5h-68v-108.087c0-18.778 15.222-34 34-34 18.778 0 34 15.222 34 34z" fill="#6de470"/><path d="m120.97 332.413c-5.385 0-10.475 1.257-15 3.486 11.254 5.543 19 17.122 19 30.514v108.087h30v-108.087c0-18.777-15.222-34-34-34z" fill="#4dcc68"/><path d="m421.866 474.5h-68v-154.189c0-18.778 15.222-34 34-34 18.778 0 34 15.222 34 34z" fill="#6de470"/><path d="m387.866 286.312c-5.385 0-10.475 1.257-15 3.486 11.254 5.543 19 17.122 19 30.514v154.188h30v-154.189c0-18.777-15.222-33.999-34-33.999z" fill="#4dcc68"/><path d="m489.5 504.5h-467c-8.284 0-15-6.716-15-15 0-8.284 6.716-15 15-15h467c8.284 0 15 6.716 15 15 0 8.284-6.716 15-15 15z" fill="#d67b42"/><path d="m489.5 474.5h-30c8.284 0 15 6.716 15 15s-6.716 15-15 15h30c8.284 0 15-6.716 15-15s-6.716-15-15-15z" fill="#be652b"/><path d="m103 474.5h-68v-51c0-18.778 15.222-34 34-34 18.778 0 34 15.222 34 34z" fill="#6de470"/><path d="m69 389.5c-5.385 0-10.475 1.257-15 3.486 11.254 5.543 19 17.122 19 30.514v51h30v-51c0-18.778-15.222-34-34-34z" fill="#4dcc68"/><path d="m389.07 474.5h-86v-55c0-23.748 19.252-43 43-43 23.748 0 43 19.252 43 43z" fill="#6de470"/><path d="m346.07 376.5c-5.277 0-10.329.955-15 2.694 16.351 6.088 28 21.834 28 40.306v55h30v-55c0-23.748-19.252-43-43-43z" fill="#4dcc68"/><g><path d="m489.5 467h-4.73v-36.73c0-11.239-4.378-21.805-12.326-29.753-7.949-7.949-18.516-12.327-29.753-12.327-4.597 0-9.076.727-13.32 2.141v-26.253c0-4.142-3.357-7.5-7.5-7.5s-7.5 3.358-7.5 7.5v38.564.091 64.267h-17.801v-47.5c0-22.514-14.81-41.634-35.199-48.13v-51.06c0-9.279 4.794-17.459 12.034-22.194v51.713c0 4.142 3.357 7.5 7.5 7.5s7.5-3.358 7.5-7.5v-56.013c6.876.135 13.323 2.878 18.202 7.757 5.007 5.007 7.764 11.661 7.764 18.737v11.87c0 4.142 3.357 7.5 7.5 7.5s7.5-3.358 7.5-7.5v-11.87c0-11.083-4.317-21.503-12.157-29.344-7.714-7.713-17.926-12.016-28.809-12.153v-41.407c32.194-3.729 57.269-31.159 57.269-64.336 0-35.713-29.055-64.768-64.769-64.768h-2.176c1.842-7.074 2.772-14.371 2.772-21.802 0-11.941-2.391-23.508-7.104-34.38-1.648-3.8-6.065-5.545-9.864-3.897-3.801 1.648-5.546 6.064-3.897 9.865 3.893 8.977 5.866 18.536 5.866 28.412 0 7.482-1.137 14.794-3.386 21.802h-79.396c-30.527 0-56.188 21.228-62.998 49.698h-3.722c-39.425 0-71.5-32.075-71.5-71.5 0-19.097 7.438-37.051 20.943-50.557s31.46-20.943 50.557-20.943h78c18.13 0 35.42 6.796 48.686 19.136 3.032 2.822 7.777 2.65 10.6-.383 2.821-3.033 2.65-7.778-.383-10.6-16.05-14.93-36.969-23.153-58.903-23.153h-78c-23.104 0-44.825 8.998-61.163 25.337-16.339 16.338-25.337 38.059-25.337 61.163 0 47.696 38.804 86.5 86.5 86.5h1.952v.07c0 4.663.496 9.213 1.437 13.6h-71.429c-15.273 0-29.624 5.945-40.403 16.737-10.793 10.793-16.737 25.138-16.737 40.393 0 31.507 25.633 57.14 57.14 57.14h10.849v19.06c0 4.142 3.358 7.5 7.5 7.5s7.5-3.358 7.5-7.5v-19.06h22.419v68.792c0 4.142 3.358 7.5 7.5 7.5s7.5-3.358 7.5-7.5v-68.792h15.272v115.947c-8.431-2.298-15.62-8.032-19.73-16.079-8.747-17.126-26.086-27.795-45.3-27.896v-6.501c0-11.083-4.317-21.504-12.157-29.343-7.839-7.839-18.26-12.157-29.343-12.157-22.883 0-41.5 18.617-41.5 41.5v16.928c-3.346-.874-6.855-1.339-10.47-1.339-22.883 0-41.5 18.617-41.5 41.5v43.5h-5c-12.407 0-22.5 10.093-22.5 22.5s10.093 22.5 22.5 22.5h105.577c4.142 0 7.5-3.358 7.5-7.5s-3.358-7.5-7.5-7.5h-105.577c-4.136 0-7.5-3.364-7.5-7.5s3.364-7.5 7.5-7.5h467c4.136 0 7.5 3.364 7.5 7.5s-3.364 7.5-7.5 7.5h-329.32c-4.142 0-7.5 3.358-7.5 7.5s3.358 7.5 7.5 7.5h329.32c12.406 0 22.5-10.093 22.5-22.5s-10.094-22.5-22.5-22.5zm-143.13-146.69v48.692c-.1-.001-.2-.002-.301-.002-27.344 0-49.681 21.845-50.477 49h-11.092v-117.06h.68c15.262 0 29.61-5.944 40.404-16.737 10.793-10.793 16.736-25.142 16.736-40.403 0-1.999-.103-3.989-.308-5.962h31.392v43.574c-15.771 5.884-27.034 21.1-27.034 38.898zm-103.87 97.69v-195.008c7.709 6.376 16.913 11.005 27 13.273v181.735zm84.403-180.162c.278 1.963.418 3.955.418 5.962 0 11.254-4.384 21.837-12.343 29.797-7.961 7.959-18.543 12.343-29.798 12.343h-.68v-48.102zm-43.183-114.536h97.185c27.442 0 49.769 22.326 49.769 49.768s-22.326 49.768-49.769 49.768h-97.185c-27.442 0-49.768-22.326-49.768-49.768s22.325-49.768 49.768-49.768zm-78.747 162.638c-.081-.003-.163-.004-.245-.004s-.164.002-.245.004h-36.929c-.081-.003-.163-.004-.245-.004s-.164.002-.245.004h-18.104c-23.236 0-42.14-18.904-42.14-42.14 0-11.249 4.384-21.827 12.346-29.79 7.949-7.958 18.53-12.34 29.794-12.34h76.655c.593 1.2 1.222 2.378 1.885 3.535v80.735zm-110.503 80.47c0-14.612 11.888-26.5 26.5-26.5 7.076 0 13.73 2.757 18.736 7.764 5.006 5.006 7.764 11.66 7.764 18.736v100.59h-36.97v-43.5c0-13.291-6.281-25.142-16.03-32.743zm-51.97 100.59v-43.5c0-14.612 11.888-26.5 26.5-26.5s26.5 11.888 26.5 26.5v43.5zm119.97-79.089c13.55.101 25.771 7.637 31.941 19.72 7.993 15.648 23.874 25.369 41.445 25.369h59.713v34h-133.099zm148.1 79.089v-41.5c0-.026-.001-.052-.001-.077v-5.923c0-19.575 15.925-35.5 35.5-35.5s35.5 15.925 35.5 35.5v47.5zm118.8 0v-60.318c4.036-2.293 8.579-3.492 13.32-3.492 7.23 0 14.03 2.817 19.146 7.934 5.115 5.115 7.933 11.915 7.933 19.146v36.73z"/><path d="m200.216 54.944c-4.142 0-7.5 3.358-7.5 7.5s3.358 7.5 7.5 7.5h18c4.142 0 7.5-3.358 7.5-7.5s-3.358-7.5-7.5-7.5z"/><path d="m289.438 160.674h18c4.143 0 7.5-3.358 7.5-7.5s-3.357-7.5-7.5-7.5h-18c-4.143 0-7.5 3.358-7.5 7.5s3.357 7.5 7.5 7.5z"/><path d="m191.717 241.301h-18c-4.142 0-7.5 3.358-7.5 7.5s3.358 7.5 7.5 7.5h18c4.142 0 7.5-3.358 7.5-7.5s-3.358-7.5-7.5-7.5z"/></g></g></svg>