<svg id="Capa_1" enable-background="new 0 0 512 512" height="24" viewBox="0 0 512 512" width="24" xmlns="http://www.w3.org/2000/svg"><g><g><path d="m376.95 504.554h-237.086c-5.523 0-10-4.477-10-10v-237.086c0-5.523 4.477-10 10-10h237.086c5.523 0 10 4.477 10 10v237.086c0 5.523-4.478 10-10 10z" fill="#ffead8"/></g><g><path d="m377.021 247.468h-30.021v207.207c0 5.483-4.445 9.929-9.929 9.929h-207.207v30.021c0 5.483 4.445 9.929 9.929 9.929h237.228c5.483 0 9.929-4.445 9.929-9.929v-237.228c0-5.483-4.446-9.929-9.929-9.929z" fill="#f4d8bc"/></g><g><path d="m292.144 269.794-28.788-4.275c-14.297-2.123-28.847-1.862-43.058.772l-18.963 3.515c-15.761 2.922-31.925 2.922-47.686 0l-18.967-3.516c-14.211-2.634-28.76-2.895-43.056-.772l-28.8 4.277c-9.005 1.337-16.743-6.402-15.406-15.406l4.276-28.795c2.123-14.297 1.862-28.847-.772-43.058l-3.515-18.963c-2.922-15.761-2.922-31.925 0-47.686l3.516-18.967c2.634-14.211 2.895-28.76.772-43.056l-4.277-28.8c-1.338-9.004 6.401-16.743 15.406-15.406l28.795 4.276c14.297 2.123 28.847 1.862 43.058-.772l18.963-3.515c15.761-2.922 31.925-2.922 47.686 0l18.967 3.516c14.211 2.634 28.76 2.895 43.056.772l28.8-4.277c9.005-1.337 16.743 6.402 15.406 15.406l-4.276 28.795c-2.123 14.297-1.862 28.847.772 43.058l3.522 19.001c2.917 15.736 2.922 31.874.014 47.612l-3.548 19.203c-2.624 14.203-2.879 28.743-.752 43.029l4.26 28.62c1.341 9.007-6.399 16.749-15.405 15.412z" fill="#ac80dd"/></g><g><path d="m303.289 225.762c-2.127-14.286-1.873-28.826.752-43.029l3.548-19.203c2.908-15.738 2.903-31.876-.014-47.612l-3.522-19.001c-2.634-14.211-2.896-28.761-.772-43.058l4.276-28.795c1.337-9.005-6.402-16.743-15.406-15.406l-25.58 3.798-.477 3.215c-2.123 14.297-1.862 28.847.772 43.058l3.522 19.001c2.917 15.736 2.922 31.874.014 47.612l-3.548 19.203c-2.624 14.203-2.879 28.743-.752 43.029l4.26 28.62c1.341 9.006-6.399 16.748-15.405 15.411l-28.788-4.275c-14.297-2.123-28.847-1.862-43.058.772l-18.963 3.515c-15.761 2.922-31.925 2.922-47.686 0l-18.967-3.516c-14.211-2.634-28.76-2.895-43.056-.772l-3.22.478-3.799 25.58c-1.337 9.005 6.402 16.743 15.406 15.406l28.8-4.277c14.296-2.123 28.845-1.862 43.056.772l18.967 3.516c15.761 2.922 31.925 2.922 47.686 0l18.963-3.515c14.211-2.634 28.761-2.895 43.058-.772l28.788 4.275c9.007 1.337 16.746-6.405 15.405-15.411z" fill="#9d66d5"/></g><g><path d="m463.462 432.728c-9.088 9.09-15.662-6.779-28.516-6.779-12.851 0-12.851 7.943-25.703 7.943-12.853 0-12.853-7.943-25.705-7.943-12.853 0-12.853 7.943-25.706 7.943-12.854 0-12.854-7.943-25.709-7.943s-12.855 7.943-25.709 7.943-12.854-7.943-25.709-7.943-12.855 7.943-25.71 7.943c-12.857 0-12.857-7.943-25.714-7.943s-19.429 15.87-28.522 6.78c-9.09-9.088 6.779-15.662 6.779-28.516 0-12.851-7.943-12.851-7.943-25.703 0-12.853 7.943-12.853 7.943-25.705 0-12.853-7.943-12.853-7.943-25.706 0-12.854 7.943-12.854 7.943-25.709s-7.943-12.855-7.943-25.709 7.943-12.854 7.943-25.709-7.943-12.855-7.943-25.71c0-12.857 7.943-12.857 7.943-25.714s-15.87-19.429-6.78-28.522c9.088-9.09 15.662 6.779 28.516 6.779 12.851 0 12.851-7.943 25.703-7.943 12.853 0 12.853 7.943 25.705 7.943 12.853 0 12.853-7.943 25.706-7.943 12.854 0 12.854 7.943 25.709 7.943s12.855-7.943 25.709-7.943 12.854 7.943 25.709 7.943 12.855-7.943 25.71-7.943c12.857 0 12.857 7.943 25.714 7.943s19.429-15.87 28.522-6.78c9.09 9.088-6.779 15.662-6.779 28.516 0 12.851 7.943 12.851 7.943 25.703 0 12.853-7.943 12.853-7.943 25.705 0 12.853 7.943 12.853 7.943 25.706 0 12.854-7.943 12.854-7.943 25.709s7.943 12.855 7.943 25.709-7.943 12.854-7.943 25.709 7.943 12.855 7.943 25.71c0 12.857-11.089 14.294-7.812 26.726 3.9 14.795 15.739 18.418 6.649 27.51z" fill="#ffbee4"/></g><g><path d="m456.813 405.219c-3.277-12.432 7.812-13.869 7.812-26.726 0-12.855-7.943-12.855-7.943-25.71s7.943-12.855 7.943-25.709c0-12.855-7.943-12.855-7.943-25.709 0-12.855 7.943-12.855 7.943-25.709 0-12.853-7.943-12.853-7.943-25.706s7.943-12.853 7.943-25.705c0-12.851-7.943-12.851-7.943-25.703 0-12.853 15.869-19.428 6.779-28.516-9.092-9.09-15.665 6.78-28.522 6.78-2.885 0-5.119-.402-7-1.022 2.147 6.487 6.916 8.731 6.916 18.691 0 12.853-7.943 12.853-7.943 25.705 0 12.853 7.943 12.853 7.943 25.706 0 12.855-7.943 12.855-7.943 25.709 0 12.855 7.943 12.855 7.943 25.709 0 12.855-7.943 12.855-7.943 25.709 0 12.855 7.943 12.855 7.943 25.71 0 12.857-11.089 14.294-7.812 26.726 3.9 14.795 15.739 18.417 6.649 27.509-9.088 9.09-15.662-6.779-28.515-6.779-12.851 0-12.851 7.943-25.703 7.943-12.853 0-12.853-7.943-25.705-7.943-12.853 0-12.853 7.943-25.706 7.943-12.854 0-12.854-7.943-25.709-7.943s-12.855 7.943-25.709 7.943-12.854-7.943-25.709-7.943-12.855 7.943-25.71 7.943c-9.972 0-12.213-4.777-18.714-6.921.623 1.883 1.027 4.12 1.027 7.012 0 12.853-15.869 19.428-6.779 28.516 9.092 9.09 15.665-6.78 28.522-6.78s12.857 7.943 25.714 7.943c12.855 0 12.855-7.943 25.71-7.943 12.854 0 12.854 7.943 25.709 7.943s12.855-7.943 25.709-7.943 12.854 7.943 25.709 7.943c12.853 0 12.853-7.943 25.706-7.943s12.853 7.943 25.705 7.943c12.851 0 12.851-7.943 25.703-7.943 12.853 0 19.428 15.869 28.516 6.779 9.089-9.092-2.75-12.715-6.65-27.509z" fill="#eaaadd"/></g><g><path d="m386.949 458.649c-4.113 0-7.446 3.333-7.446 7.446v28.529c0 1.369-1.114 2.482-2.482 2.482h-237.228c-1.369 0-2.482-1.113-2.482-2.482v-152.942c0-4.113-3.334-7.446-7.446-7.446-4.113 0-7.446 3.333-7.446 7.446v152.943c0 9.581 7.795 17.375 17.375 17.375h237.228c9.581 0 17.375-7.795 17.375-17.375v-28.529c-.001-4.113-3.335-7.447-7.448-7.447z"/><path d="m469.4 414.164c-2.065-3.118-4.2-6.343-5.387-10.843-.895-3.396-.125-4.532 2.163-7.901 2.487-3.664 5.894-8.683 5.894-16.927 0-8.542-2.938-13.297-5.083-16.769-1.784-2.886-2.86-4.628-2.86-8.941s1.076-6.054 2.86-8.941c2.145-3.472 5.083-8.227 5.083-16.769s-2.938-13.297-5.083-16.769c-1.784-2.886-2.86-4.628-2.86-8.941 0-4.312 1.076-6.054 2.859-8.94 2.146-3.472 5.084-8.227 5.084-16.769s-2.938-13.296-5.084-16.767c-1.783-2.885-2.859-4.628-2.859-8.939s1.076-6.053 2.859-8.939c2.145-3.471 5.084-8.225 5.084-16.766s-2.938-13.296-5.084-16.767c-1.783-2.885-2.859-4.626-2.859-8.936 0-3.256 2.083-6.357 4.288-9.64 3.434-5.113 9.825-14.628.31-24.142-9.517-9.515-19.032-3.123-24.144.311-3.284 2.206-6.385 4.288-9.642 4.288-4.314 0-6.057-1.076-8.944-2.86-3.472-2.145-8.227-5.083-16.77-5.083s-13.297 2.938-16.77 5.084c-2.886 1.783-4.628 2.859-8.941 2.859s-6.055-1.076-8.941-2.859c-3.472-2.146-8.226-5.084-16.769-5.084s-13.297 2.938-16.769 5.084c-2.886 1.783-4.628 2.859-8.94 2.859s-6.055-1.076-8.941-2.859c-2.02-1.249-4.483-2.762-7.866-3.812 2.691-15.984 2.565-32.164-.394-48.128l-3.523-19.001c-2.49-13.432-2.735-27.093-.729-40.606l4.276-28.795c.988-6.649-1.172-13.188-5.926-17.941-4.752-4.753-11.291-6.909-17.94-5.924l-20.137 2.99c-4.068.604-6.876 4.391-6.272 8.46.604 4.067 4.387 6.869 8.459 6.272l20.138-2.99c1.936-.291 3.839.34 5.222 1.724 1.384 1.383 2.012 3.287 1.725 5.222l-4.276 28.795c-2.249 15.144-1.975 30.456.816 45.509l3.523 19.001c2.749 14.832 2.764 29.872.047 44.707-4.9.956-8.137 2.947-10.679 4.519-2.885 1.783-4.627 2.859-8.938 2.859s-6.053-1.076-8.938-2.859c-3.472-2.146-8.225-5.084-16.767-5.084-8.541 0-13.295 2.938-16.766 5.084-2.885 1.783-4.626 2.859-8.937 2.859-3.256 0-6.357-2.083-9.64-4.288-5.112-3.434-14.628-9.826-24.141-.309-9.514 9.516-3.123 19.032.311 24.144 2.205 3.284 4.288 6.385 4.288 9.643 0 4.314-1.077 6.056-2.86 8.943-2.145 3.472-5.083 8.227-5.083 16.77s2.938 13.298 5.083 16.77c1.784 2.886 2.86 4.628 2.86 8.941s-1.076 6.054-2.86 8.941c-.776 1.256-1.655 2.685-2.463 4.396-13.236 1.874-26.601 1.615-39.764-.824-20.794-4.304-43.368-8.027-64.474-4.333l-28.8 4.277c-1.934.288-3.839-.341-5.222-1.724-1.384-1.384-2.012-3.287-1.725-5.222l4.276-28.795c2.249-15.145 1.975-30.456-.816-45.51l-3.516-18.963c-2.766-14.921-2.766-30.051 0-44.97l3.516-18.967c2.79-15.053 3.065-30.363.816-45.507l-4.273-28.802c-.287-1.935.341-3.839 1.725-5.221 1.384-1.384 3.288-2.011 5.222-1.725l28.794 4.276c15.143 2.248 30.453 1.973 45.509-.817l18.964-3.515c14.921-2.765 30.052-2.765 44.971 0l18.968 3.516c7.077 1.312 14.309 2.074 21.496 2.266 4.08.108 7.533-3.133 7.643-7.245.11-4.111-3.133-7.533-7.244-7.642-6.413-.172-12.866-.852-19.18-2.022l-18.967-3.516c-16.721-3.1-33.679-3.101-50.4 0l-18.965 3.515c-13.433 2.491-27.095 2.736-40.607.728l-28.795-4.276c-6.648-.988-13.188 1.172-17.941 5.925-4.752 4.753-6.912 11.292-5.925 17.94l4.276 28.801c2.007 13.512 1.761 27.174-.729 40.604l-3.516 18.967c-3.1 16.721-3.1 33.677 0 50.4l3.516 18.963c2.49 13.432 2.735 27.094.729 40.607l-4.276 28.795c-.988 6.648 1.172 13.187 5.925 17.94s11.294 6.914 17.94 5.925l28.8-4.277c9.869-1.466 19.817-1.717 29.698-.783v36.324c0 4.113 3.334 7.446 7.446 7.446 4.113 0 7.446-3.333 7.446-7.446v-34.074l14.981 2.777c8.347 1.547 16.766 2.321 25.191 2.321 4.934 0 9.869-.286 14.793-.817.579 6.727 3.074 10.768 4.958 13.818 1.784 2.886 2.86 4.628 2.86 8.941s-1.076 6.054-2.86 8.941c-2.145 3.472-5.083 8.226-5.083 16.768s2.938 13.296 5.084 16.767c1.783 2.885 2.859 4.628 2.859 8.939s-1.076 6.053-2.859 8.939c-2.145 3.471-5.084 8.225-5.084 16.767 0 8.541 2.938 13.295 5.084 16.766 1.783 2.885 2.859 4.626 2.859 8.937 0 3.256-2.083 6.357-4.288 9.64-3.434 5.112-9.826 14.628-.31 24.141 3.699 3.698 7.397 4.993 10.837 4.993 5.411 0 10.182-3.204 13.307-5.304 3.284-2.206 6.385-4.288 9.643-4.288 4.314 0 6.056 1.076 8.943 2.86 3.472 2.145 8.227 5.083 16.77 5.083s13.297-2.938 16.77-5.084c2.886-1.783 4.628-2.859 8.941-2.859 4.312 0 6.054 1.076 8.94 2.859 3.472 2.146 8.226 5.084 16.769 5.084s13.297-2.938 16.769-5.084c2.886-1.783 4.628-2.859 8.941-2.859 4.312 0 6.054 1.076 8.94 2.859 3.472 2.146 8.226 5.084 16.769 5.084 8.542 0 13.296-2.938 16.768-5.084 2.885-1.783 4.627-2.859 8.939-2.859 4.311 0 6.053 1.076 8.938 2.859 3.472 2.146 8.225 5.084 16.767 5.084 8.541 0 13.295-2.938 16.766-5.084 2.885-1.783 4.626-2.859 8.937-2.859 3.256 0 6.357 2.083 9.64 4.288 5.112 3.433 14.628 9.825 24.142.309 9.896-9.898 4.122-18.618.671-23.828zm-10.989 12.991c-.548.575-1.415.719-2.11.334-1.062-.59-2.401-1.49-3.411-2.168-4.284-2.878-10.151-6.818-17.944-6.818-8.541 0-13.295 2.938-16.766 5.084-2.885 1.783-4.626 2.859-8.937 2.859s-6.052-1.076-8.938-2.859c-3.472-2.146-8.226-5.084-16.767-5.084-8.542 0-13.296 2.938-16.768 5.084-2.885 1.783-4.627 2.859-8.938 2.859-4.312 0-6.054-1.076-8.94-2.859-3.472-2.146-8.226-5.084-16.769-5.084s-13.297 2.938-16.769 5.084c-2.886 1.783-4.628 2.859-8.941 2.859-4.312 0-6.054-1.076-8.94-2.859-3.472-2.146-8.226-5.084-16.769-5.084s-13.297 2.938-16.77 5.083c-2.886 1.784-4.628 2.86-8.941 2.86-4.314 0-6.056-1.076-8.943-2.86-3.472-2.145-8.227-5.083-16.77-5.083-7.795 0-13.662 3.94-17.946 6.818-1.129.758-2.67 1.793-3.774 2.362-.496.256-1.1.153-1.495-.241-.006-.006-.012-.012-.017-.017-.395-.395-.498-1-.242-1.496.569-1.104 1.604-2.643 2.361-3.771 2.877-4.284 6.818-10.151 6.818-17.943 0-8.541-2.938-13.296-5.084-16.767-1.783-2.885-2.859-4.626-2.859-8.936 0-4.311 1.076-6.053 2.859-8.939 2.145-3.471 5.084-8.225 5.084-16.767s-2.938-13.296-5.084-16.767c-1.783-2.885-2.859-4.628-2.859-8.939 0-4.312 1.076-6.054 2.86-8.94 2.145-3.472 5.083-8.227 5.083-16.769s-2.938-13.297-5.083-16.769c-1.784-2.886-2.86-4.628-2.86-8.941 0-4.312 1.076-6.054 2.86-8.94 2.145-3.472 5.083-8.226 5.083-16.769 0-8.542-2.938-13.297-5.083-16.769-1.783-2.886-2.86-4.629-2.86-8.942 0-4.314 1.077-6.056 2.86-8.943 2.145-3.473 5.083-8.228 5.083-16.771 0-7.795-3.941-13.661-6.818-17.946-.758-1.129-1.793-2.67-2.363-3.774-.256-.496-.153-1.1.242-1.495.006-.006.011-.012.017-.017.395-.395 1-.498 1.496-.242 1.104.569 2.643 1.604 3.771 2.361 4.284 2.878 10.151 6.818 17.944 6.818 8.541 0 13.295-2.938 16.766-5.084 2.885-1.783 4.626-2.859 8.937-2.859s6.052 1.076 8.938 2.859c3.472 2.146 8.226 5.084 16.768 5.084s13.296-2.938 16.768-5.084c2.885-1.783 4.627-2.859 8.938-2.859 4.312 0 6.054 1.076 8.94 2.859 3.472 2.146 8.226 5.084 16.769 5.084 8.542 0 13.297-2.938 16.769-5.084 2.886-1.783 4.628-2.859 8.941-2.859 4.312 0 6.054 1.076 8.94 2.859 3.472 2.146 8.226 5.084 16.769 5.084 8.542 0 13.297-2.938 16.769-5.084 2.886-1.783 4.628-2.859 8.941-2.859 4.314 0 6.056 1.076 8.943 2.86 3.472 2.145 8.227 5.083 16.771 5.083 7.794 0 13.662-3.941 17.946-6.818 1.129-.758 2.67-1.794 3.775-2.363.496-.256 1.1-.153 1.495.242.006.006.012.012.017.017.395.395.498 1 .242 1.496-.569 1.104-1.604 2.643-2.361 3.771-2.877 4.284-6.818 10.151-6.818 17.944 0 8.541 2.938 13.295 5.084 16.766 1.783 2.885 2.859 4.626 2.859 8.937s-1.076 6.052-2.859 8.937c-2.145 3.472-5.084 8.226-5.084 16.768s2.938 13.296 5.084 16.767c1.783 2.885 2.859 4.628 2.859 8.939 0 4.313-1.076 6.054-2.86 8.941-2.145 3.472-5.083 8.226-5.083 16.768s2.938 13.297 5.083 16.769c1.784 2.886 2.86 4.628 2.86 8.941s-1.076 6.054-2.86 8.941c-2.145 3.472-5.083 8.227-5.083 16.769s2.938 13.297 5.083 16.769c1.784 2.886 2.86 4.628 2.86 8.941 0 3.667-1.322 5.614-3.323 8.561-2.897 4.268-6.865 10.113-4.243 20.062 1.813 6.878 5.025 11.729 7.371 15.271.545.822 1.205 1.819 1.697 2.653.397.672.294 1.524-.245 2.089z"/><circle cx="281.793" cy="332.28" r="11.232"/><circle cx="332.121" cy="332.28" r="11.232"/><circle cx="382.449" cy="332.28" r="11.232"/><circle cx="256.629" cy="367.194" r="11.232"/><circle cx="306.957" cy="367.194" r="11.232"/><circle cx="357.285" cy="367.194" r="11.232"/><circle cx="407.613" cy="367.194" r="11.232"/><circle cx="256.629" cy="227.193" r="11.232"/><circle cx="306.957" cy="227.193" r="11.232"/><circle cx="357.285" cy="227.193" r="11.232"/><circle cx="407.613" cy="227.193" r="11.232"/><circle cx="281.793" cy="262.28" r="11.232"/><circle cx="332.121" cy="262.28" r="11.232"/><circle cx="382.449" cy="262.28" r="11.232"/><circle cx="256.629" cy="297.194" r="11.232"/><circle cx="306.957" cy="297.194" r="11.232"/><circle cx="357.285" cy="297.194" r="11.232"/><circle cx="407.613" cy="297.194" r="11.232"/><path d="m119.515 66.852c0-4.113-3.334-7.446-7.446-7.446s-7.446 3.333-7.446 7.446v14.025c0 4.113 3.334 7.446 7.446 7.446s7.446-3.333 7.446-7.446z"/><path d="m163.076 66.852c0-4.113-3.334-7.446-7.446-7.446s-7.446 3.333-7.446 7.446v14.025c0 4.113 3.334 7.446 7.446 7.446s7.446-3.333 7.446-7.446z"/><path d="m204.517 66.852c0-4.113-3.334-7.446-7.446-7.446-4.113 0-7.446 3.333-7.446 7.446v14.025c0 4.113 3.334 7.446 7.446 7.446 4.113 0 7.446-3.333 7.446-7.446z"/><path d="m248.079 66.852c0-4.113-3.334-7.446-7.446-7.446-4.113 0-7.446 3.333-7.446 7.446v14.025c0 4.113 3.334 7.446 7.446 7.446 4.113 0 7.446-3.333 7.446-7.446z"/><path d="m119.515 126.653c0-4.113-3.334-7.446-7.446-7.446s-7.446 3.333-7.446 7.446v14.026c0 4.113 3.334 7.446 7.446 7.446s7.446-3.333 7.446-7.446z"/><path d="m163.076 126.653c0-4.113-3.334-7.446-7.446-7.446s-7.446 3.333-7.446 7.446v14.026c0 4.113 3.334 7.446 7.446 7.446s7.446-3.333 7.446-7.446z"/><path d="m197.071 119.206c-4.113 0-7.446 3.333-7.446 7.446v14.026c0 4.113 3.334 7.446 7.446 7.446 4.113 0 7.446-3.333 7.446-7.446v-14.026c0-4.112-3.334-7.446-7.446-7.446z"/><path d="m240.632 119.206c-4.113 0-7.446 3.333-7.446 7.446v14.026c0 4.113 3.334 7.446 7.446 7.446 4.113 0 7.446-3.333 7.446-7.446v-14.026c.001-4.112-3.333-7.446-7.446-7.446z"/><path d="m112.068 177.915c-4.113 0-7.446 3.333-7.446 7.446v14.026c0 4.113 3.334 7.446 7.446 7.446s7.446-3.333 7.446-7.446v-14.026c.001-4.113-3.333-7.446-7.446-7.446z"/><path d="m155.63 177.915c-4.113 0-7.446 3.333-7.446 7.446v14.026c0 4.113 3.334 7.446 7.446 7.446s7.446-3.333 7.446-7.446v-14.026c0-4.113-3.334-7.446-7.446-7.446z"/></g></g></svg>